<?xml version="1.0" encoding="UTF-8" standalone="no"?>
<!-- Created with Inkscape (http://www.inkscape.org/) -->

<svg
   version="1.1"
   id="svg1"
   width="100"
   height="101"
   viewBox="0 0 100 101"
   xml:space="preserve"
   xmlns="http://www.w3.org/2000/svg"
   xmlns:svg="http://www.w3.org/2000/svg"><defs
     id="defs1" /><g
     id="g1"><path
       style="fill:#f59e0b;fill-opacity:1;stroke-width:7.01989"
       d="M 10.607276,50.37699 C 7.129743,47.486354 6.4404531,42.830814 6.4404531,42.830814 5.9911101,42.441631 4.9894844,31.557632 10.961598,25.851165 c 5.276864,-5.042126 11.246591,-2.840703 11.246591,-2.840703 16.015018,6.566663 2.260074,27.564138 8.613164,33.017138 1.811089,1.554512 5.891279,-1.408401 5.891279,-1.408401 0,0 3.636141,-2.631552 7.825849,-2.751178 2.955899,-0.08438 7.225936,2.477543 7.225936,2.477543 0,0 3.560164,3.202677 5.147501,2.576678 C 68.007181,50.653798 52.372578,34.123169 63.911449,21.556355 84.852758,0.01142678 104.9661,28.903777 93.638021,43.80396 87.280818,52.165812 79.817448,52.100113 70.921214,52.977206 66.270938,53.717523 58.512453,55.986295 59.071503,60.907482 61.817255,85.077967 40.228915,89.755122 32.375437,79.017761 25.983063,70.278043 32.318576,61.010169 27.116193,55.246602 22.45517,50.083074 17.879936,56.422188 10.607276,50.37699 Z"
       id="path26" /><path
       style="fill:#a8a29e;fill-opacity:1;stroke-width:5.88038"
       id="path28"
       d="M 98.692893,17.411175 A 14.733641,14.755424 0 0 1 113.30827,31.384555 14.733641,14.755424 0 0 1 100.25125,46.828209 14.733641,14.755424 0 0 1 84.079727,34.695416 14.733641,14.755424 0 0 1 95.209412,17.805766"
       transform="matrix(0.90883785,0.41714956,-0.30124903,0.9535455,0,0)" /><path
       style="fill:#a8a29e;fill-opacity:1;stroke-width:4.16053"
       id="path28-4"
       d="m -69.022469,-7.5097131 a 11.542409,9.4287214 0 0 1 11.449761,8.9289952 11.542409,9.4287214 0 0 1 -10.228936,9.8685009 11.542409,9.4287214 0 0 1 -12.668854,-7.7528593 11.542409,9.4287214 0 0 1 8.719052,-10.792493"
       transform="matrix(-0.1541938,-0.98804062,0.98434359,-0.1762603,0,0)" /></g></svg>
